<?xml version="1.0" encoding="iso-8859-1"?>
<!-- Uploaded to: SVG Repo, www.svgrepo.com, Generator: SVG Repo Mixer Tools -->
<svg height="800px" width="800px" version="1.1" id="Capa_1" xmlns="http://www.w3.org/2000/svg"
	xmlns:xlink="http://www.w3.org/1999/xlink" viewBox="0 0 60.875 60.875" xml:space="preserve">
	<g>
		<g>
			<path style="fill:#B91C1C;" d="M33.844,9.046c0.804,0,1.455,0.749,1.455,1.673h3.775V0.854l-2.141,2.318h-6.387l-1.931-2.318
			v9.865h3.775C32.395,9.794,33.046,9.046,33.844,9.046z M37.751,5.27c0.457,0.909,0.074,2.024-0.855,2.492
			c-0.928,0.469-2.084,0.098-2.51-0.797C34.964,5.906,37.751,5.27,37.751,5.27z M30.932,7.763c-0.929-0.468-1.311-1.583-0.854-2.492
			c0,0,2.786,0.635,3.366,1.695C33.018,7.86,31.862,8.231,30.932,7.763z" />
			<path style="fill:#B91C1C;" d="M18.402,4.881L8.927,0l-0.84,1.631l9.475,4.881L18.402,4.881z M17.167,5.282L9.319,1.237L9.32,1.23
			l7.851,4.045L17.167,5.282z" />
			<path style="fill:#B91C1C;" d="M52.303,37.153H49.59v-1.441h-1.912c0.812-0.771,1.181-1.965,0.428-3.213
			c-3.323-5.507-6.241-11.237-9.286-16.898c-0.022-0.042-0.054-0.072-0.076-0.112c-0.901-2.598-5.978-0.937-10.964-2.492
			c-0.007-0.003-0.012-0.005-0.019-0.008c-4.834-2.472-9.668-4.944-14.503-7.416c-3.14-1.604-5.915,3.123-2.766,4.732
			c5.555,2.84,11.111,5.681,16.667,8.521c-1.303,5.854,1.483,5.523,0.266,13.234c-0.093,0.293-0.163,0.606-0.173,0.966
			c0,0-0.474,16.366-0.711,24.551c-0.123,4.246,6.476,4.473,6.597,0.211c0.127-4.42,0.256-8.842,0.386-13.26
			c0.603,4.482,1.207,8.969,1.809,13.452c0.567,4.212,7.113,3.366,6.543-0.856c-1.09-8.115-2.183-16.229-3.272-24.34
			c-0.021-0.175-0.061-0.332-0.103-0.488c0.056-0.213,0.058-0.45-0.02-0.725c-0.416-1.517-0.148-2.905,0.2-4.598
			c1.51,2.794,3.052,5.568,4.692,8.291c0.259,0.428,0.578,0.729,0.927,0.939v0.948h-2.716c-0.268,0-0.483,0.22-0.483,0.488v6.897
			c0,0.268,0.218,0.484,0.483,0.484h10.72c0.27,0,0.485-0.219,0.485-0.484v-6.897C52.788,37.372,52.57,37.153,52.303,37.153z
			 M49.093,37.153h-4.299v-0.72c0.729,0.242,1.524,0.13,2.197-0.228h2.102V37.153z" />
		</g>
	</g>
</svg>